<!DOCTYPE svg PUBLIC "-//W3C//DTD SVG 20010904//EN" "http://www.w3.org/TR/2001/REC-SVG-20010904/DTD/svg10.dtd">
<svg version="1.0" xmlns="http://www.w3.org/2000/svg" width="350px" height="124px" viewBox="0 0 3500 1240" preserveAspectRatio="xMidYMid meet">
    <g id="a" fill="#69fe6a" stroke="none">
        <path d="M2850 975 c-114 -27 -192 -159 -161 -273 23 -90 103 -157 199 -169 144 -17 271 126 241 269 -14 63 -62 126 -119 154 -61 30 -95 34 -160 19z m114 -50 c32 -7 83 -50 102 -87 8 -16 16 -50 16 -76 2 -98 -62 -169 -163 -178 -65 -6 -108 14 -154 70 -26 32 -30 46 -30 95 0 93 46 156 133 181 26 7 40 7 96 -5z"/>

        <path d="M2826 965 c-82 -29 -139 -114 -139 -206 -1 -194 221 -296 366 -168 185 162 7 457 -227 374z"
        visibility="hidden"
        class="theme-button"
        ojd-button="A"/>
    </g>
    <g id="b" fill="#ff6e86" stroke="none">
        <path d="M2435 1045 c-125 -44 -133 -209 -13 -271 56 -29 141 -7 181 47 11 15 21 47 24 71 13 109 -89 190 -192 153z m95 -50 c59 -31 69 -107 21 -156 -49 -49 -125 -38 -157 23 -22 42 -11 90 27 122 35 30 67 33 109 11z"/>

        <path d="M2403 1030 c-42 -25 -63 -68 -63 -129 0 -106 113 -173 209 -123 47 23 72 61 78 115 6 54 -23 114 -67 140 -39 23 -117 22 -157 -3z"
        visibility="hidden"
        class="theme-button"
        ojd-button="B"/>
    </g>
    <g id="x" fill="#fefefe" stroke="none">
        <path d="M3303 946 c-45 -20 -52 -41 -56 -158 -3 -77 -10 -117 -26 -157 -27 -66 -21 -101 22 -137 63 -53 151 -9 198 100 32 72 38 203 12 270 -28 76 -88 109 -150 82z m93 -73 c53 -80 36 -235 -36 -317 -40 -45 -84 -50 -102 -11 -9 21 -7 37 12 93 18 50 24 89 24 155 1 77 4 91 21 103 29 21 56 13 81 -23z"/>

        <path d="M3294 941 c-18 -11 -35 -24 -38 -30 -4 -6 -8 -55 -9 -108 -2 -74 -8 -114 -26 -163 -28 -75 -24 -109 16 -146 18 -17 37 -24 66 -24 35 0 47 6 87 48 58 60 80 125 80 236 -1 124 -36 186 -116 201 -19 4 -39 -1 -60 -14z"
        visibility="hidden"
        class="theme-button"
        ojd-button="X"/>
    </g>
    <g id="y" fill="#fefefe" stroke="none">
        <path d="M2621 473 c-40 -39 -45 -71 -18 -124 24 -48 99 -100 172 -121 64 -17 177 -12 229 10 78 35 101 119 47 173 -26 26 -36 29 -90 29 -74 0 -154 16 -203 41 -54 28 -102 25 -137 -8z m156 -49 c43 -14 101 -25 146 -27 84 -3 107 -16 107 -57 0 -109 -281 -100 -375 11 -14 17 -25 39 -25 50 0 27 38 62 58 54 9 -4 49 -17 89 -31z"/>

        <path d="M2618 477 c-57 -53 -40 -132 41 -194 56 -43 138 -66 232 -65 122 1 189 45 189 125 0 29 -7 46 -28 66 -24 25 -36 28 -119 34 -64 4 -110 13 -155 31 -82 33 -127 33 -160 3z"
        visibility="hidden"
        class="theme-button"
        ojd-button="Y"/>
    </g>
    <g id="z" fill="#4f48ab" stroke="none">
        <path d="M3250 244 c-52 -20 -121 -45 -154 -57 -71 -27 -91 -51 -73 -87 11 -21 20 -25 50 -23 43 3 317 80 335 95 18 16 15 72 -6 91 -26 23 -43 21 -152 -19z m140 -30 c0 -19 -20 -27 -170 -68 -156 -43 -162 -44 -167 -28 -5 14 24 28 192 87 120 43 145 44 145 9z"/>

        <path d="M3186 215 c-82 -30 -153 -60 -158 -67 -20 -33 0 -68 39 -68 38 0 317 81 336 98 37 33 10 92 -41 92 -15 -1 -94 -25 -176 -55z"
        visibility="hidden"
        class="theme-button"
        ojd-button="Z"/>
    </g>
    <!-- <g id="l" fill="#fefefe" stroke="none">
        <path d="M70 180 c-11 -11 -20 -33 -20 -50 0 -17 9 -39 20 -50 19 -19 33 -20 403 -20 372 0 384 1 402 20 23 26 23 74 0 100 -18 19 -30 20 -402 20 -370 0 -384 -1 -403 -20z m778 -16 c26 -18 28 -41 5 -66 -15 -17 -40 -18 -380 -18 -350 0 -364 1 -383 20 -11 11 -20 25 -20 30 0 6 9 19 20 30 19 19 33 20 378 20 307 0 361 -2 380 -16z"/>

        <path d="M67 182 c-23 -25 -22 -84 1 -105 17 -15 59 -17 405 -17 337 0 388 2 401 16 27 27 31 63 9 92 l-20 27 -390 3 c-368 2 -391 1 -406 -16z"
        visibility="hidden"
        class="theme-button"
        ojd-button="L"/>
    </g>
    <g id="r" fill="#fefefe" stroke="none">
        <path d="M982 184 c-16 -11 -22 -25 -22 -53 0 -73 -11 -71 422 -71 373 0 385 1 403 20 10 11 18 34 18 50 0 16 -8 39 -18 50 -18 19 -30 20 -399 20 -329 0 -385 -2 -404 -16z m776 -20 c26 -18 28 -41 5 -66 -15 -17 -40 -18 -380 -18 -350 0 -364 1 -383 20 -11 11 -20 25 -20 30 0 6 9 19 20 30 19 19 33 20 378 20 307 0 361 -2 380 -16z"/>

        <path d="M977 182 c-23 -25 -22 -85 1 -105 17 -15 59 -17 405 -17 l386 0 20 26 c26 34 26 54 0 88 l-20 26 -388 0 c-363 0 -389 -1 -404 -18z"
        visibility="hidden"
        class="theme-button"
        ojd-button="R"/>
    </g> -->
    <g id="start" fill="#fefefe" stroke="none">
        <path d="M2174 311 c-36 -22 -58 -75 -48 -115 3 -14 20 -37 36 -51 96 -81 225 52 141 145 -36 40 -86 48 -129 21z m94 -37 c15 -10 22 -25 22 -46 0 -42 -25 -68 -66 -68 -57 0 -85 69 -44 110 24 24 57 26 88 4z"/>

        <path d="M2185 321 c-39 -16 -60 -51 -60 -98 0 -38 5 -49 33 -74 90 -81 211 14 160 126 -20 45 -82 66 -133 46z"
        visibility="hidden"
        class="theme-button"
        ojd-button="START"/>
    </g>
    <g id="l-stick" fill="#fefefe" stroke="none">
        <path d="M353 1017 c-73 -29 -137 -57 -142 -62 -14 -14 -121 -260 -121 -277 0 -21 100 -271 113 -284 7 -6 71 -37 144 -68 l132 -56 133 51 c73 28 138 56 145 63 18 17 123 256 123 281 0 26 -96 265 -113 282 -12 12 -224 106 -262 116 -12 4 -75 -16 -152 -46z m264 -49 l122 -52 47 -119 c26 -66 47 -125 47 -132 0 -14 -79 -200 -98 -231 -9 -13 -58 -38 -134 -68 l-120 -47 -123 53 -123 53 -47 115 c-26 63 -47 123 -48 133 0 21 87 226 104 244 11 12 219 100 241 102 6 1 65 -22 132 -51z"/>
    </g>
    <g id="c-stick" fill="#fedb6e" stroke="none">
        <path d="M1265 977 c-55 -23 -105 -45 -111 -49 -16 -11 -104 -222 -104 -250 0 -13 19 -74 42 -137 l42 -114 101 -48 c56 -26 112 -50 126 -54 25 -6 233 73 255 98 19 21 97 221 96 247 -1 31 -77 230 -94 246 -19 18 -215 104 -236 103 -9 0 -62 -19 -117 -42z m234 -55 l94 -47 39 -105 39 -104 -42 -101 c-22 -55 -46 -105 -52 -111 -7 -6 -53 -28 -104 -48 -102 -42 -94 -43 -217 14 -83 39 -84 40 -105 94 -12 31 -30 80 -41 109 l-20 54 41 99 c23 54 46 104 53 111 15 16 176 81 201 82 11 0 62 -21 114 -47z"/>
    </g>
</svg>
