<?xml version="1.0" encoding="UTF-8" standalone="no"?>
<!-- Created with Inkscape (http://www.inkscape.org/) -->

<svg
   xmlns:dc="http://purl.org/dc/elements/1.1/"
   xmlns:cc="http://creativecommons.org/ns#"
   xmlns:rdf="http://www.w3.org/1999/02/22-rdf-syntax-ns#"
   xmlns:svg="http://www.w3.org/2000/svg"
   xmlns="http://www.w3.org/2000/svg"
   xmlns:sodipodi="http://sodipodi.sourceforge.net/DTD/sodipodi-0.dtd"
   xmlns:inkscape="http://www.inkscape.org/namespaces/inkscape"
   width="500"
   height="300"
   viewBox="0 0 132.29167 79.374997"
   version="1.1"
   id="svg8"
   sodipodi:docname="streamer.svg"
   inkscape:version="0.92.5 (2060ec1f9f, 2020-04-08)">
  <defs
     id="defs2" />
  <sodipodi:namedview
     id="base"
     pagecolor="#ffffff"
     bordercolor="#666666"
     borderopacity="1.0"
     inkscape:pageopacity="0.0"
     inkscape:pageshadow="2"
     inkscape:zoom="1.78"
     inkscape:cx="279.47887"
     inkscape:cy="146.65162"
     inkscape:document-units="mm"
     inkscape:current-layer="layer1"
     showgrid="true"
     guidetolerance="10000"
     inkscape:snap-perpendicular="true"
     inkscape:snap-tangential="true"
     inkscape:window-width="1930"
     inkscape:window-height="1302"
     inkscape:window-x="368"
     inkscape:window-y="1141"
     inkscape:window-maximized="0"
     units="px">
    <inkscape:grid
       type="xygrid"
       id="grid66"
       originx="-1.2616789"
       originy="-16.466321" />
  </sodipodi:namedview>
  <metadata
     id="metadata5">
    <rdf:RDF>
      <cc:Work
         rdf:about="">
        <dc:format>image/svg+xml</dc:format>
        <dc:type
           rdf:resource="http://purl.org/dc/dcmitype/StillImage" />
        <dc:title></dc:title>
      </cc:Work>
    </rdf:RDF>
  </metadata>
  <g
     inkscape:groupmode="layer"
     id="layer1"
     inkscape:label="Layer 1"
     style="display:inline;opacity:1"
     transform="translate(-1.2616789,-201.15868)">
    <g
       id="controls"
       transform="translate(6.6145844,-3.3072837)">
      <g
         id="faceButtons">
        <g
           id="aButton">
          <circle
             ojd-button="A"
             class="theme-button"
             inkscape:label="btnA"
             r="4.3994513"
             cy="248.40599"
             cx="99.122231"
             id="path3917-1-2-7-0"
             style="display:inline;opacity:1;fill:#808080;stroke:none;stroke-width:0.04839223" />
          <g
             ojd-button="A"
             class="theme-label-contrast"
             inkscape:label="lblA"
             transform="matrix(0.46891416,0,0,0.46891416,-5.3519437,167.78365)"
             id="text294-2"
             style="font-style:normal;font-variant:normal;font-weight:normal;font-stretch:normal;font-size:12.69999981px;line-height:1.25;font-family:sans-serif;-inkscape-font-specification:'sans-serif, Normal';font-variant-ligatures:normal;font-variant-caps:normal;font-variant-numeric:normal;font-feature-settings:normal;text-align:start;letter-spacing:0px;word-spacing:0px;writing-mode:lr-tb;text-anchor:start;display:inline;opacity:1;fill:#ffffff;fill-opacity:1;stroke:none;stroke-width:0.26458332"
             aria-label="A">
            <path
               inkscape:connector-curvature="0"
               id="path856"
               style="font-style:normal;font-variant:normal;font-weight:normal;font-stretch:normal;font-size:12.69999981px;font-family:sans-serif;-inkscape-font-specification:'sans-serif, Normal';font-variant-ligatures:normal;font-variant-caps:normal;font-variant-numeric:normal;font-feature-settings:normal;text-align:start;writing-mode:lr-tb;text-anchor:start;fill:#ffffff;stroke-width:0.26458332"
               d="m 222.80023,168.53919 -1.69912,4.60747 h 3.40444 z m -0.70693,-1.23403 h 1.42007 l 3.52846,9.25835 h -1.30224 l -0.84336,-2.37505 h -4.17339 l -0.84336,2.37505 h -1.32085 z" />
          </g>
        </g>
        <g
           id="bButton">
          <circle
             ojd-button="B"
             class="theme-button"
             inkscape:label="btnB"
             r="4.3994513"
             cy="239.47639"
             cx="107.89508"
             id="path3917-1-2-7"
             style="display:inline;opacity:1;fill:#808080;stroke:none;stroke-width:0.04839223" />
          <g
             ojd-button="B"
             class="theme-label-contrast"
             inkscape:label="lblB"
             transform="matrix(0.46891416,0,0,0.46891416,-5.3519473,167.78365)"
             id="text294"
             style="font-style:normal;font-variant:normal;font-weight:normal;font-stretch:normal;font-size:12.69999981px;line-height:1.25;font-family:sans-serif;-inkscape-font-specification:'sans-serif, Normal';font-variant-ligatures:normal;font-variant-caps:normal;font-variant-numeric:normal;font-feature-settings:normal;text-align:start;letter-spacing:0px;word-spacing:0px;writing-mode:lr-tb;text-anchor:start;fill:#ffffff;fill-opacity:1;stroke:none;stroke-width:0.26458332"
             aria-label="B">
            <path
               inkscape:connector-curvature="0"
               id="path859"
               style="font-style:normal;font-variant:normal;font-weight:normal;font-stretch:normal;font-size:12.69999981px;font-family:sans-serif;-inkscape-font-specification:'sans-serif, Normal';font-variant-ligatures:normal;font-variant-caps:normal;font-variant-numeric:normal;font-feature-settings:normal;text-align:start;writing-mode:lr-tb;text-anchor:start;fill:#ffffff;stroke-width:0.26458332"
               d="m 239.47821,153.09913 v 3.39204 h 2.00918 q 1.01079,0 1.49449,-0.41547 0.48989,-0.42168 0.48989,-1.28365 0,-0.86816 -0.48989,-1.27744 -0.4837,-0.41548 -1.49449,-0.41548 z m 0,-3.80752 v 2.79053 h 1.85415 q 0.91778,0 1.36426,-0.34106 0.45269,-0.34727 0.45269,-1.0542 0,-0.70073 -0.45269,-1.048 -0.44648,-0.34727 -1.36426,-0.34727 z m -1.25263,-1.02939 h 3.1998 q 1.43247,0 2.20762,0.59531 0.77515,0.59531 0.77515,1.69292 0,0.84956 -0.39688,1.35186 -0.39687,0.50229 -1.16582,0.62632 0.92397,0.19843 1.43247,0.83095 0.5147,0.62632 0.5147,1.5689 0,1.24023 -0.84336,1.91616 -0.84336,0.67593 -2.39986,0.67593 h -3.32382 z" />
          </g>
        </g>
        <g
           id="xButton">
          <circle
             ojd-button="X"
             class="theme-button"
             inkscape:label="btnX"
             r="4.3994513"
             cy="239.47639"
             cx="90.1614"
             id="path3917-1"
             style="display:inline;opacity:1;fill:#808080;stroke:none;stroke-width:0.04839223" />
          <g
             ojd-button="X"
             class="theme-label-contrast"
             inkscape:label="lblX"
             transform="matrix(0.46891416,0,0,0.46891416,-5.3519445,167.78365)"
             id="text294-1-6"
             style="font-style:normal;font-variant:normal;font-weight:normal;font-stretch:normal;font-size:12.69999981px;line-height:1.25;font-family:sans-serif;-inkscape-font-specification:'sans-serif, Normal';font-variant-ligatures:normal;font-variant-caps:normal;font-variant-numeric:normal;font-feature-settings:normal;text-align:start;letter-spacing:0px;word-spacing:0px;writing-mode:lr-tb;text-anchor:start;display:inline;opacity:1;fill:#ffffff;fill-opacity:1;stroke:none;stroke-width:0.26458332"
             aria-label="X">
            <path
               inkscape:connector-curvature="0"
               id="path865"
               style="font-style:normal;font-variant:normal;font-weight:normal;font-stretch:normal;font-size:12.69999981px;font-family:sans-serif;-inkscape-font-specification:'sans-serif, Normal';font-variant-ligatures:normal;font-variant-caps:normal;font-variant-numeric:normal;font-feature-settings:normal;text-align:start;writing-mode:lr-tb;text-anchor:start;fill:#ffffff;stroke-width:0.26458332"
               d="m 200.14959,148.26222 h 1.34566 l 2.30063,3.44165 2.31304,-3.44165 h 1.34565 l -2.97656,4.44624 3.175,4.81211 h -1.34566 l -2.60449,-3.93775 -2.62309,3.93775 h -1.35186 l 3.30523,-4.94234 z" />
          </g>
        </g>
        <g
           id="yButton">
          <circle
             ojd-button="Y"
             class="theme-button"
             inkscape:label="btnY"
             r="4.3994513"
             cy="230.35886"
             cx="99.122231"
             id="path3917-1-2"
             style="display:inline;opacity:1;fill:#808080;stroke:none;stroke-width:0.04839223" />
          <g
             ojd-button="Y"
             class="theme-label-contrast"
             inkscape:label="lblY"
             transform="matrix(0.46891416,0,0,0.46891416,-5.351939,167.78365)"
             id="text294-1"
             style="font-style:normal;font-variant:normal;font-weight:normal;font-stretch:normal;font-size:12.69999981px;line-height:1.25;font-family:sans-serif;-inkscape-font-specification:'sans-serif, Normal';font-variant-ligatures:normal;font-variant-caps:normal;font-variant-numeric:normal;font-feature-settings:normal;text-align:start;letter-spacing:0px;word-spacing:0px;writing-mode:lr-tb;text-anchor:start;display:inline;opacity:1;fill:#ffffff;fill-opacity:1;stroke:none;stroke-width:0.26458332"
             aria-label="Y">
            <path
               inkscape:connector-curvature="0"
               id="path862"
               style="font-style:normal;font-variant:normal;font-weight:normal;font-stretch:normal;font-size:12.69999981px;font-family:sans-serif;-inkscape-font-specification:'sans-serif, Normal';font-variant-ligatures:normal;font-variant-caps:normal;font-variant-numeric:normal;font-feature-settings:normal;text-align:start;writing-mode:lr-tb;text-anchor:start;fill:#ffffff;stroke-width:0.26458332"
               d="m 218.89658,128.81834 h 1.34566 l 2.56728,3.80752 2.54868,-3.80752 h 1.34566 l -3.27422,4.84932 v 4.40903 h -1.25884 v -4.40903 z" />
          </g>
        </g>
      </g>
      <g
         id="startButton">
        <circle
           style="display:inline;opacity:1;fill:#808080;stroke:none;stroke-width:0.03441226"
           id="path3917-1-7"
           cx="72.862923"
           cy="239.38243"
           r="3.1284983"
           inkscape:label="btnStart"
           class="theme-button"
           ojd-button="START" />
        <g
           id="hamburger-icon">
          <path
             inkscape:connector-curvature="0"
             id="path429"
             d="m 71.576082,238.49296 h 2.573681"
             style="fill:none;stroke:#ffffff;stroke-width:0.23445708;stroke-linecap:butt;stroke-linejoin:miter;stroke-miterlimit:4;stroke-dasharray:none;stroke-opacity:1" />
          <path
             inkscape:connector-curvature="0"
             id="path429-1"
             d="m 71.576082,239.26839 h 2.573681"
             style="display:inline;opacity:1;fill:none;stroke:#ffffff;stroke-width:0.23445708;stroke-linecap:butt;stroke-linejoin:miter;stroke-miterlimit:4;stroke-dasharray:none;stroke-opacity:1" />
          <path
             inkscape:connector-curvature="0"
             id="path429-1-1"
             d="m 71.576083,240.04382 h 2.57368"
             style="display:inline;opacity:1;fill:none;stroke:#ffffff;stroke-width:0.23445708;stroke-linecap:butt;stroke-linejoin:miter;stroke-miterlimit:4;stroke-dasharray:none;stroke-opacity:1" />
        </g>
      </g>
      <g
         id="selectButton">
        <circle
           style="display:inline;opacity:1;fill:#808080;stroke:#808080;stroke-width:0.03441226"
           id="path3917-1-7-1"
           cx="44.416462"
           cy="239.38243"
           r="3.1284983"
           inkscape:label="btnSelect"
           class="theme-button"
           ojd-button="SELECT" />
        <g
           id="share-icon"
           transform="translate(-4.529953e-6,0.06336105)">
          <rect
             y="238.0799"
             x="42.923096"
             height="1.5569177"
             width="1.9699774"
             id="rect421"
             style="fill:none;stroke:#ffffff;stroke-width:0.23445708;stroke-miterlimit:4;stroke-dasharray:none" />
          <rect
             y="238.90601"
             x="43.876312"
             height="1.6522391"
             width="2.033525"
             id="rect423"
             style="fill:none;stroke:#ffffff;stroke-width:0.23445708;stroke-miterlimit:4;stroke-dasharray:none" />
        </g>
      </g>
      <g
         id="dpad">
        <path
           style="display:inline;opacity:1;fill:none;stroke:#808080;stroke-width:0.5291667;stroke-miterlimit:4;stroke-dasharray:none"
           d="m 44.404589,252.81711 c -1.859108,4.7e-4 -3.481387,-0.0384 -3.481387,0.90893 h -2.4e-4 c -0.0018,1.85827 0,3.74198 0,5.60846 h -5.608451 c -0.967402,0 -0.90121,2.56483 -0.908937,3.50537 4.68e-4,1.85911 -0.0384,3.48138 0.908937,3.48138 v 2.5e-4 c 1.858275,0.002 3.741976,0 5.608451,0 v 5.60845 c 0,0.9674 2.564834,0.90121 3.505374,0.90894 1.859108,-4.8e-4 3.481382,0.0384 3.481382,-0.90894 h 2.44e-4 c 0.0018,-1.85828 0,-3.74198 0,-5.60845 h 5.608453 c 0.967403,0 0.901206,-2.56484 0.908933,-3.50538 -4.69e-4,-1.85911 0.0384,-3.48138 -0.908933,-3.48138 v -2.4e-4 c -1.858275,-0.002 -3.741978,0 -5.608453,0 v -5.60846 c 0,-0.9674 -2.564838,-0.9012 -3.505373,-0.90893 z"
           id="rect261"
           inkscape:connector-curvature="0" />
        <path
           inkscape:transform-center-y="-3.013453e-06"
           inkscape:transform-center-x="-0.76395442"
           d="m 54.473045,246.76132 4.583737,2.64643 -4.583737,2.64642 z"
           inkscape:randomized="0"
           inkscape:rounded="0"
           inkscape:flatsided="true"
           sodipodi:arg2="-1.0471976"
           sodipodi:arg1="-2.0943951"
           sodipodi:r2="1.5279123"
           sodipodi:r1="3.0558243"
           sodipodi:cy="249.40775"
           sodipodi:cx="56.000957"
           sodipodi:sides="3"
           id="path868-7"
           style="opacity:1;fill:#808080;fill-opacity:1;stroke:none;stroke-width:0.47220892;stroke-linejoin:round;stroke-miterlimit:4;stroke-dasharray:none;stroke-opacity:1"
           sodipodi:type="star"
           transform="rotate(-90,53.823779,258.81506)"
           inkscape:label="btnUp"
           class="theme-button"
           ojd-button="UP" />
        <path
           inkscape:transform-center-y="-3.013453e-06"
           inkscape:transform-center-x="-0.76395442"
           d="m 49.078495,260.18158 4.583736,2.64642 -4.583736,2.64642 z"
           inkscape:randomized="0"
           inkscape:rounded="0"
           inkscape:flatsided="true"
           sodipodi:arg2="-1.0471976"
           sodipodi:arg1="-2.0943951"
           sodipodi:r2="1.5279123"
           sodipodi:r1="3.0558243"
           sodipodi:cy="262.828"
           sodipodi:cx="50.606407"
           sodipodi:sides="3"
           id="path868"
           style="opacity:1;fill:#808080;fill-opacity:1;stroke:none;stroke-width:0.47220892;stroke-linejoin:round;stroke-miterlimit:4;stroke-dasharray:none;stroke-opacity:1"
           sodipodi:type="star"
           inkscape:label="btnRight"
           class="theme-button"
           ojd-button="RIGHT" />
        <path
           inkscape:transform-center-y="-3.013453e-06"
           inkscape:transform-center-x="-0.76395442"
           d="m -39.754433,-265.47442 4.583737,2.64642 -4.583737,2.64642 z"
           inkscape:randomized="0"
           inkscape:rounded="0"
           inkscape:flatsided="true"
           sodipodi:arg2="-1.0471976"
           sodipodi:arg1="-2.0943951"
           sodipodi:r2="1.5279123"
           sodipodi:r1="3.0558243"
           sodipodi:cy="-262.828"
           sodipodi:cx="-38.226521"
           sodipodi:sides="3"
           id="path868-5"
           style="opacity:1;fill:#808080;fill-opacity:1;stroke:none;stroke-width:0.47220892;stroke-linejoin:round;stroke-miterlimit:4;stroke-dasharray:none;stroke-opacity:1"
           sodipodi:type="star"
           transform="scale(-1)"
           inkscape:label="btnLeft"
           class="theme-button"
           ojd-button="LEFT" />
        <path
           inkscape:transform-center-y="-3.013453e-06"
           inkscape:transform-center-x="-0.76395442"
           d="m 54.473045,246.76132 4.583737,2.64643 -4.583737,2.64642 z"
           inkscape:randomized="0"
           inkscape:rounded="0"
           inkscape:flatsided="true"
           sodipodi:arg2="-1.0471976"
           sodipodi:arg1="-2.0943951"
           sodipodi:r2="1.5279123"
           sodipodi:r1="3.0558243"
           sodipodi:cy="249.40775"
           sodipodi:cx="56.000957"
           sodipodi:sides="3"
           id="path868-1"
           style="opacity:1;fill:#808080;fill-opacity:1;stroke:none;stroke-width:0.47220892;stroke-linejoin:round;stroke-miterlimit:4;stroke-dasharray:none;stroke-opacity:1"
           sodipodi:type="star"
           transform="rotate(90,40.40371,253.4205)"
           inkscape:label="btnDown"
           class="theme-button"
           ojd-button="DOWN" />
      </g>
      <g
         id="stickBorders">
        <circle
           style="display:inline;opacity:1;fill:none;stroke:#808080;stroke-width:0.52916676;stroke-miterlimit:4;stroke-dasharray:none"
           id="path3917-12"
           cx="72.86293"
           cy="262.82791"
           r="11.192384"
           inkscape:label="color-accent"
           class="theme-color-accent" />
        <circle
           style="display:inline;opacity:1;fill:none;stroke:#808080;stroke-width:0.52916682;stroke-miterlimit:4;stroke-dasharray:none"
           id="path3917-12-8"
           cx="20.748291"
           cy="240.28461"
           r="11.192384"
           inkscape:label="color-accent"
           class="theme-color-accent" />
      </g>
      <g
         id="lButtons">
        <g
           id="l1Button">
          <rect
             ojd-button="L"
             class="theme-button"
             inkscape:label="btnL"
             ry="3.1897235"
             y="214.02205"
             x="33.763779"
             height="8.8976488"
             width="20.145628"
             id="rect1842"
             style="opacity:1;fill:#808080;fill-opacity:1;stroke:none;stroke-width:0.70509678;stroke-linejoin:round;stroke-miterlimit:4;stroke-dasharray:none;stroke-opacity:1" />
          <g
             ojd-button="L"
             class="theme-label-contrast"
             inkscape:label="lblL1"
             transform="matrix(1.2690156,0,0,1.2690156,-13.941814,199.36747)"
             id="L1-label"
             style="font-style:normal;font-weight:normal;font-size:5.35760832px;line-height:1.25;font-family:sans-serif;letter-spacing:0px;word-spacing:0px;fill:#ffffff;fill-opacity:1;stroke:none;stroke-width:0.1339402"
             aria-label="L1">
            <path
               inkscape:connector-curvature="0"
               id="path1677"
               style="fill:#ffffff;stroke-width:0.1339402"
               d="m 42.844755,13.100953 h 0.528436 v 3.460994 h 1.901847 v 0.444723 h -2.430283 z" />
            <path
               inkscape:connector-curvature="0"
               id="path1679"
               style="fill:#ffffff;stroke-width:0.1339402"
               d="m 45.965667,16.561947 h 0.863286 V 13.5823 l -0.939151,0.188354 v -0.481348 l 0.933919,-0.188353 h 0.528436 v 3.460994 h 0.863287 v 0.444723 h -2.249777 z" />
          </g>
        </g>
        <g
           id="l2Button">
          <rect
             ojd-button="L2"
             class="theme-button"
             inkscape:label="btnL2"
             ry="3.1897235"
             y="214.02205"
             x="10.675479"
             height="8.8976488"
             width="20.145628"
             id="rect1842-40"
             style="opacity:1;fill:#808080;fill-opacity:1;stroke:none;stroke-width:0.70509678;stroke-linejoin:round;stroke-miterlimit:4;stroke-dasharray:none;stroke-opacity:1" />
          <g
             ojd-button="L2"
             class="theme-label-contrast"
             inkscape:label="lblL2"
             transform="matrix(1.2690156,0,0,1.2690156,-37.240973,209.38383)"
             id="L2-label"
             style="font-style:normal;font-weight:normal;font-size:5.3576088px;line-height:1.25;font-family:sans-serif;letter-spacing:0px;word-spacing:0px;fill:#ffffff;fill-opacity:1;stroke:none;stroke-width:0.1339402"
             aria-label="L2">
            <path
               inkscape:connector-curvature="0"
               id="path1682"
               style="fill:#ffffff;stroke-width:0.1339402"
               d="m 43.031843,5.2432252 h 0.528436 v 3.4609944 h 1.901847 v 0.4447233 h -2.430283 z" />
            <path
               inkscape:connector-curvature="0"
               id="path1684"
               style="fill:#ffffff;stroke-width:0.1339402"
               d="m 46.516382,8.7042196 h 1.844294 V 9.1489429 H 45.880689 V 8.7042196 q 0.300842,-0.3113064 0.818814,-0.8345104 0.520588,-0.52582 0.654005,-0.6775492 0.253754,-0.2851461 0.353163,-0.4813476 0.102025,-0.1988175 0.102025,-0.389787 0,-0.3113064 -0.219746,-0.5075078 -0.21713,-0.1962015 -0.567676,-0.1962015 -0.248522,0 -0.52582,0.086329 -0.274682,0.086329 -0.588605,0.261602 V 5.4315786 q 0.319155,-0.1281849 0.596453,-0.1935854 0.277298,-0.0654 0.507508,-0.0654 0.606916,0 0.967927,0.3034583 0.361011,0.3034583 0.361011,0.8109662 0,0.2406738 -0.09156,0.4578034 -0.08895,0.2145137 -0.327002,0.5075079 -0.0654,0.075865 -0.415948,0.4394914 -0.350546,0.3610107 -0.988855,1.0123997 z" />
          </g>
        </g>
        <g
           id="l3Button">
          <rect
             ojd-button="L3"
             class="theme-button"
             inkscape:label="btnL3"
             ry="3.1897237"
             y="257.98767"
             x="10.675477"
             height="8.8976498"
             width="20.14563"
             id="rect1842-40-0"
             style="opacity:1;fill:#808080;fill-opacity:1;stroke:none;stroke-width:0.70509672;stroke-linejoin:round;stroke-miterlimit:4;stroke-dasharray:none;stroke-opacity:1" />
          <g
             ojd-button="L3"
             class="theme-label-contrast"
             inkscape:label="lblL3"
             transform="translate(-6.924919,190.05836)"
             id="L3-label"
             style="font-style:normal;font-weight:normal;font-size:6.79888916px;line-height:1.25;font-family:sans-serif;letter-spacing:0px;word-spacing:0px;fill:#ffffff;fill-opacity:1;stroke:none;stroke-width:0.16997221"
             aria-label="L3">
            <path
               inkscape:connector-curvature="0"
               id="path923"
               style="fill:#ffffff;stroke-width:0.16997221"
               d="m 24.22397,69.89658 h 0.670593 v 4.392056 h 2.413473 v 0.564361 H 24.22397 Z" />
            <path
               inkscape:connector-curvature="0"
               id="path925"
               style="fill:#ffffff;stroke-width:0.16997221"
               d="m 30.099963,72.180582 q 0.481366,0.102913 0.750268,0.42825 0.272221,0.325338 0.272221,0.803385 0,0.733669 -0.504605,1.135361 -0.504605,0.401692 -1.434141,0.401692 -0.312058,0 -0.644035,-0.06307 -0.328658,-0.05976 -0.680553,-0.182588 v -0.647355 q 0.278861,0.162669 0.610838,0.245663 0.331977,0.08299 0.693832,0.08299 0.630756,0 0.959413,-0.248983 0.331977,-0.248982 0.331977,-0.723709 0,-0.43821 -0.308739,-0.683873 -0.305418,-0.248983 -0.85318,-0.248983 h -0.57764 V 71.92828 h 0.604198 q 0.494645,0 0.756907,-0.195866 0.262262,-0.199186 0.262262,-0.571001 0,-0.381773 -0.272221,-0.584279 -0.268901,-0.205826 -0.773506,-0.205826 -0.275541,0 -0.59092,0.05976 -0.315378,0.05976 -0.693831,0.185907 v -0.597558 q 0.381773,-0.106233 0.71375,-0.159349 0.335297,-0.05312 0.630756,-0.05312 0.763548,0 1.208397,0.348576 0.444849,0.345256 0.444849,0.936175 0,0.411652 -0.235704,0.697152 -0.235703,0.28218 -0.670593,0.391733 z" />
          </g>
        </g>
      </g>
      <g
         id="rButtons">
        <g
           id="r1Button">
          <rect
             ojd-button="R"
             class="theme-button"
             inkscape:label="btnR1"
             ry="3.1897235"
             y="214.02205"
             x="66.43309"
             height="8.8976488"
             width="20.145628"
             id="rect1842-4"
             style="opacity:1;fill:#808080;fill-opacity:1;stroke:none;stroke-width:0.70509678;stroke-linejoin:round;stroke-miterlimit:4;stroke-dasharray:none;stroke-opacity:1" />
          <g
             ojd-button="R"
             class="theme-label-contrast"
             inkscape:label="lblR1"
             transform="matrix(1.2690156,0,0,1.2690156,-19.154773,199.36747)"
             id="R1-label"
             style="font-style:normal;font-weight:normal;font-size:5.3576088px;line-height:1.25;font-family:sans-serif;letter-spacing:0px;word-spacing:0px;fill:#ffffff;fill-opacity:1;stroke:none;stroke-width:0.1339402"
             aria-label="R1">
            <path
               inkscape:connector-curvature="0"
               id="path1672"
               style="fill:#ffffff;stroke-width:0.1339402"
               d="m 74.177126,15.175456 q 0.170041,0.05755 0.329618,0.245906 0.162194,0.188353 0.324387,0.517972 l 0.536284,1.067336 h -0.567676 l -0.49966,-1.001936 Q 74.106493,15.612331 73.923372,15.484146 73.742867,15.355961 73.428944,15.355961 H 72.85342 v 1.650709 h -0.528436 v -3.905718 h 1.192905 q 0.669701,0 0.99932,0.279914 0.329618,0.279915 0.329618,0.844975 0,0.368859 -0.172657,0.612148 -0.170042,0.24329 -0.497044,0.337467 z M 72.85342,13.535212 v 1.38649 h 0.664469 q 0.381939,0 0.575524,-0.175273 0.196202,-0.17789 0.196202,-0.520588 0,-0.342699 -0.196202,-0.515356 -0.193585,-0.175273 -0.575524,-0.175273 z" />
            <path
               inkscape:connector-curvature="0"
               id="path1674"
               style="fill:#ffffff;stroke-width:0.1339402"
               d="m 76.188845,16.561947 h 0.863287 V 13.5823 l -0.939151,0.188353 V 13.289306 L 77.0469,13.100952 h 0.528436 v 3.460995 h 0.863286 v 0.444723 h -2.249777 z" />
          </g>
        </g>
        <g
           id="r2Button">
          <rect
             ojd-button="R2"
             class="theme-button"
             inkscape:label="btnR2"
             ry="3.1897235"
             y="214.02205"
             x="88.955429"
             height="8.8976488"
             width="20.145628"
             id="rect1842-4-9"
             style="opacity:1;fill:#808080;fill-opacity:1;stroke:none;stroke-width:0.70509678;stroke-linejoin:round;stroke-miterlimit:4;stroke-dasharray:none;stroke-opacity:1" />
          <g
             ojd-button="R2"
             class="theme-label-contrast"
             inkscape:label="lblR2"
             transform="matrix(1.2690156,0,0,1.2690156,1.732197,209.38383)"
             id="R2-label"
             style="font-style:normal;font-weight:normal;font-size:5.3576088px;line-height:1.25;font-family:sans-serif;letter-spacing:0px;word-spacing:0px;fill:#ffffff;fill-opacity:1;stroke:none;stroke-width:0.1339402"
             aria-label="R2">
            <path
               inkscape:connector-curvature="0"
               id="path1667"
               style="fill:#ffffff;stroke-width:0.1339402"
               d="m 75.486742,7.317729 q 0.170041,0.057552 0.329619,0.2459059 0.162193,0.1883534 0.324386,0.5179719 l 0.536284,1.0673361 H 76.109355 L 75.609695,8.1470073 Q 75.416109,7.7546043 75.232988,7.6264194 75.052483,7.4982344 74.73856,7.4982344 H 74.163036 V 9.1489429 H 73.6346 V 5.2432252 h 1.192905 q 0.669701,0 0.99932,0.2799141 0.329618,0.2799142 0.329618,0.8449745 0,0.3688588 -0.172657,0.6121486 -0.170041,0.2432899 -0.497044,0.3374666 z M 74.163036,5.6774845 v 1.3864906 h 0.664469 q 0.381939,0 0.575524,-0.1752734 0.196202,-0.1778893 0.196202,-0.5205879 0,-0.3426986 -0.196202,-0.515356 -0.193585,-0.1752733 -0.575524,-0.1752733 z" />
            <path
               inkscape:connector-curvature="0"
               id="path1669"
               style="fill:#ffffff;stroke-width:0.1339402"
               d="m 77.862088,8.7042196 h 1.844294 V 9.1489429 H 77.226395 V 8.7042196 q 0.300843,-0.3113064 0.818814,-0.8345104 0.520588,-0.52582 0.654005,-0.6775492 0.253754,-0.2851461 0.353163,-0.4813476 0.102025,-0.1988175 0.102025,-0.389787 0,-0.3113064 -0.219746,-0.5075078 -0.217129,-0.1962015 -0.567676,-0.1962015 -0.248522,0 -0.52582,0.086329 -0.274682,0.086329 -0.588605,0.261602 V 5.4315786 q 0.319155,-0.1281849 0.596453,-0.1935854 0.277298,-0.0654 0.507508,-0.0654 0.606916,0 0.967927,0.3034583 0.361011,0.3034583 0.361011,0.8109662 0,0.2406738 -0.09156,0.4578034 -0.08894,0.2145137 -0.327002,0.5075079 -0.0654,0.075865 -0.415947,0.4394914 -0.350547,0.3610107 -0.988856,1.0123997 z" />
          </g>
        </g>
        <g
           id="r3Button">
          <rect
             ojd-button="R3"
             class="theme-button"
             inkscape:label="btnR3"
             ry="3.1897237"
             y="257.98767"
             x="88.955429"
             height="8.8976498"
             width="20.14563"
             id="rect1842-4-9-3"
             style="opacity:1;fill:#808080;fill-opacity:1;stroke:none;stroke-width:0.70509672;stroke-linejoin:round;stroke-miterlimit:4;stroke-dasharray:none;stroke-opacity:1" />
          <g
             ojd-button="R3"
             class="theme-label-contrast"
             inkscape:label="lblR3"
             transform="translate(-5.1824066,190.05836)"
             id="R3-label"
             style="font-style:normal;font-weight:normal;font-size:6.79888916px;line-height:1.25;font-family:sans-serif;letter-spacing:0px;word-spacing:0px;fill:#ffffff;fill-opacity:1;stroke:none;stroke-width:0.16997221"
             aria-label="R3">
            <path
               inkscape:connector-curvature="0"
               id="path918"
               style="fill:#ffffff;stroke-width:0.16997221"
               d="m 102.64039,72.529158 q 0.21578,0.07304 0.41829,0.312058 0.20583,0.239024 0.41165,0.657315 l 0.68056,1.354466 h -0.72039 l -0.63408,-1.271472 q -0.24566,-0.497966 -0.47805,-0.660634 -0.22906,-0.162669 -0.62743,-0.162669 h -0.73035 v 2.094775 h -0.6706 V 69.89658 h 1.51382 q 0.84986,0 1.26815,0.355215 0.41829,0.355216 0.41829,1.072286 0,0.468088 -0.2191,0.776826 -0.21579,0.308739 -0.63076,0.428251 z m -1.6798,-2.081496 v 1.759478 h 0.84322 q 0.48468,0 0.73035,-0.222425 0.24898,-0.225744 0.24898,-0.660634 0,-0.43489 -0.24898,-0.653994 -0.24567,-0.222425 -0.73035,-0.222425 z" />
            <path
               inkscape:connector-curvature="0"
               id="path920"
               style="fill:#ffffff;stroke-width:0.16997221"
               d="m 107.1088,72.180582 q 0.48137,0.102913 0.75027,0.42825 0.27222,0.325338 0.27222,0.803385 0,0.733669 -0.50461,1.135361 -0.5046,0.401692 -1.43414,0.401692 -0.31205,0 -0.64403,-0.06307 -0.32866,-0.05976 -0.68055,-0.182588 v -0.647355 q 0.27886,0.162669 0.61083,0.245663 0.33198,0.08299 0.69384,0.08299 0.63075,0 0.95941,-0.248983 0.33198,-0.248982 0.33198,-0.723709 0,-0.43821 -0.30874,-0.683873 -0.30542,-0.248983 -0.85318,-0.248983 h -0.57764 V 71.92828 h 0.60419 q 0.49465,0 0.75691,-0.195866 0.26226,-0.199186 0.26226,-0.571001 0,-0.381773 -0.27222,-0.584279 -0.2689,-0.205826 -0.7735,-0.205826 -0.27554,0 -0.59092,0.05976 -0.31538,0.05976 -0.69383,0.185907 v -0.597558 q 0.38177,-0.106233 0.71375,-0.159349 0.33529,-0.05312 0.63075,-0.05312 0.76355,0 1.2084,0.348576 0.44485,0.345256 0.44485,0.936175 0,0.411652 -0.23571,0.697152 -0.2357,0.28218 -0.67059,0.391733 z" />
          </g>
        </g>
      </g>
    </g>
  </g>
</svg>
